<svg xmlns="http://www.w3.org/2000/svg" width="2000" height="1500"><path fill="#9055a2" d="M0 0h2000v1500H0z"/><g transform="matrix(.75 0 0 .75 250.312 118.513)"><svg xmlns="http://www.w3.org/2000/svg" xmlns:xlink="http://www.w3.org/1999/xlink" width="2000" height="1685" data-background-color="#9055a2" viewBox="0 0 388 327"><g transform="translate(-.08 -.1)"><svg width="388.161" height="327.2" viewBox="0 0 388.161 327.2"><g><svg width="388.161" height="327.2" viewBox="0 0 395.52 333.403"><g transform="translate(0 219.702)"><svg width="395.52" height="113.701" viewBox="0 0 395.52 113.701"><g><svg width="395.52" height="113.701" viewBox="0 0 395.52 113.701"><g><svg width="395.52" height="113.701" viewBox="0 0 395.52 113.701"><g><svg width="395.52" height="113.701" data-palette-color="#ffffff" viewBox="-0.128 -38.713 171.197 49.215"><path fill="#fff" d="M36.847-38.692c.946-.077 1.636.058 2.069.405.441.352.739.869.893 1.552.507 2.25-.464 3.566-2.913 3.947l-1.741.238c-1.962.271-3.906.573-5.833.904-1.929.325-3.937.723-6.025 1.194l-2.205.497a540.465 540.465 0 0 1 1.756 13.483l8.377-2.041c1.21-.273 2.064-.243 2.562.089.505.33.838.853.999 1.569.251 1.112.122 2.057-.386 2.834-.513.785-1.371 1.314-2.575 1.585l-8.361 1.884.183 2.173c.527 5.526-.07 9.682-1.794 12.469-1.716 2.785-4.529 4.618-8.437 5.499-2.218.5-4.365.478-6.442-.066C4.897 8.98 3.266 8.124 2.08 6.956c-.482-.472-.812-1.102-.99-1.889-.176-.78-.141-1.506.105-2.176.239-.669.635-1.066 1.187-1.19.397-.089.81-.046 1.239.131.436.175 1.031.571 1.785 1.187 2.03 1.702 4.2 2.293 6.508 1.772 1.86-.419 3.247-1.528 4.161-3.326.914-1.798 1.182-4.367.806-7.705l-.314-2.759-2.341.528c-.754.17-1.446.104-2.074-.199-.635-.301-1.041-.845-1.219-1.632-.227-1.008-.141-1.841.257-2.498.4-.651 1.107-1.09 2.122-1.318a72.559 72.559 0 0 0 2.672-.654 643.396 643.396 0 0 0-1.663-13.34c-3.452 1.119-5.801 2.247-7.049 3.382-1.254 1.137-1.701 2.505-1.34 4.105.249 1.106.816 2.092 1.702 2.958.261.249.425.519.49.812.132.585-.081 1.173-.638 1.763a3.96 3.96 0 0 1-2.048 1.149c-.878.198-1.688.107-2.429-.273-.463-.237-.988-.82-1.573-1.747C.85-16.897.417-17.982.139-19.218c-.911-4.045.506-7.447 4.252-10.204 3.744-2.764 9.609-5.045 17.596-6.844 5.541-1.248 10.495-2.057 14.86-2.426zm6.006 14.011c-1.386.198-2.475.023-3.266-.525-.785-.548-1.26-1.399-1.425-2.554-.166-1.162.152-2.193.953-3.096.8-.909 1.876-1.459 3.229-1.652 1.228-.175 2.263-.02 3.107.466.844.486 1.344 1.276 1.499 2.373.188 1.32-.091 2.431-.838 3.331-.747.901-1.833 1.453-3.259 1.657zm3.402 26.697c-2.152.307-3.824-.229-5.017-1.608-1.188-1.386-1.961-3.337-2.319-5.852-.212-1.485-.296-3.422-.253-5.812.051-2.384.229-4.629.535-6.733.146-1.098.439-1.881.878-2.347.439-.467 1.206-.778 2.301-.934 1.683-.24 2.604.201 2.764 1.323.118.825.077 2.787-.12 5.886-.273 3.756-.317 6.278-.134 7.564.141.99.382 1.733.722 2.231.339.49.822.691 1.45.601.601-.086 1.287-.608 2.059-1.566.773-.952 1.779-2.425 3.016-4.42.329-.525.741-.823 1.237-.894.429-.061.798.092 1.106.459.301.361.5.888.599 1.581.188 1.32.021 2.391-.502 3.213C51.874-.826 49.1 1.61 46.255 2.016zM56.475.898c-1.264.087-2.201-.517-2.811-1.811-.604-1.302-1.007-3.419-1.208-6.353-.297-4.33.035-8.489.998-12.477.233-.985.677-1.727 1.33-2.227.654-.493 1.597-.781 2.828-.865.665-.046 1.136.005 1.414.153.277.148.432.455.464.921.037.532-.13 1.75-.501 3.652a78.317 78.317 0 0 0-.559 3.547c-.131 1.018-.212 2.263-.244 3.736.901-2.942 1.974-5.358 3.221-7.248 1.24-1.896 2.492-3.272 3.756-4.127 1.264-.855 2.449-1.321 3.553-1.397 2.162-.148 3.317.858 3.465 3.02.09 1.304-.115 3.68-.614 7.129-.433 2.943-.617 4.88-.553 5.811.092 1.337.62 1.972 1.585 1.906.665-.046 1.428-.509 2.29-1.39.862-.881 1.998-2.289 3.408-4.223.367-.5.799-.767 1.299-.801.432-.03.789.15 1.069.538.273.382.434.922.482 1.621.091 1.33-.154 2.386-.735 3.167-1.309 1.861-2.749 3.416-4.32 4.667-1.578 1.244-3.415 1.939-5.51 2.083-1.703.117-3.02-.287-3.953-1.212-.939-.925-1.472-2.318-1.6-4.181-.064-.938.057-2.62.365-5.047.288-2.131.405-3.596.35-4.394-.037-.539-.238-.796-.604-.77-.432.03-1.003.63-1.711 1.801-.708 1.171-1.408 2.703-2.1 4.595a34.09 34.09 0 0 0-1.577 5.932c-.258 1.595-.611 2.681-1.059 3.26-.441.585-1.18.913-2.218.984zm27.703-1.26c-2.073-.055-3.705-.849-4.899-2.382-1.199-1.539-1.767-3.528-1.701-5.967a16.225 16.225 0 0 1 2.062-7.538c1.297-2.353 2.99-4.228 5.081-5.627 2.098-1.398 4.3-2.066 6.606-2.004.733.02 1.219.173 1.458.459.246.293.442.809.589 1.546a11.73 11.73 0 0 1 2.215-.141c1.633.044 2.434.648 2.402 1.815-.019.706-.313 2.372-.883 4.998-.869 3.818-1.323 6.477-1.363 7.976-.014.506.099.913.337 1.22.245.307.568.465.968.476.633.017 1.414-.372 2.342-1.168.922-.796 2.173-2.089 3.755-3.881.419-.462.879-.687 1.378-.674.433.012.768.224 1.004.637.243.407.355.96.336 1.66-.036 1.333-.38 2.361-1.033 3.083-1.418 1.663-2.909 3.06-4.473 4.192-1.571 1.125-3.072 1.669-4.505 1.631-1.106-.029-2.106-.433-2.999-1.21-.9-.771-1.565-1.816-1.997-3.135-1.814 2.759-4.041 4.104-6.68 4.034zm1.934-5.011c.74.02 1.454-.395 2.144-1.243.69-.855 1.204-1.995 1.542-3.42l2.105-9.167c-1.407-.004-2.717.484-3.931 1.466-1.213.988-2.192 2.309-2.936 3.963a13.649 13.649 0 0 0-1.192 5.28c-.028 1.04.162 1.815.569 2.326.4.511.966.776 1.699.795zM105.41.553c-1.258-.15-2.065-.919-2.423-2.304-.35-1.391-.351-3.547-.002-6.466.516-4.309 1.618-8.333 3.308-12.072.413-.924.987-1.571 1.723-1.939.735-.362 1.715-.47 2.939-.323.662.079 1.115.217 1.36.414.245.197.34.527.284.991-.063.53-.455 1.695-1.173 3.495a76.624 76.624 0 0 0-1.21 3.38c-.318.976-.631 2.184-.938 3.625 1.434-2.722 2.939-4.895 4.517-6.52 1.572-1.631 3.058-2.749 4.46-3.354 1.402-.604 2.652-.841 3.751-.709 2.151.257 3.098 1.462 2.841 3.613-.155 1.297-.799 3.594-1.933 6.889-.974 2.811-1.517 4.68-1.627 5.607-.159 1.331.241 2.053 1.201 2.168.662.079 1.498-.234 2.509-.939s2.39-1.876 4.137-3.513c.453-.422.928-.604 1.425-.545.43.051.747.294.95.728.197.426.255.987.171 1.683-.158 1.324-.596 2.316-1.313 2.975-1.633 1.584-3.338 2.844-5.115 3.779-1.783.928-3.717 1.267-5.802 1.017-1.695-.203-2.914-.846-3.657-1.928-.75-1.083-1.014-2.552-.792-4.405.112-.933.545-2.563 1.3-4.89.681-2.04 1.068-3.458 1.164-4.252.064-.536-.086-.826-.45-.87-.43-.051-1.102.432-2.017 1.451-.914 1.019-1.888 2.393-2.92 4.122a34.122 34.122 0 0 0-2.657 5.534c-.551 1.519-1.101 2.52-1.648 3.005-.542.492-1.33.677-2.363.553zm30.914 4.572c-3.205-.667-5.509-2.094-6.913-4.279-1.411-2.187-1.806-4.768-1.186-7.744.552-2.65 1.561-4.864 3.027-6.643 1.46-1.78 3.138-3.034 5.033-3.763 1.889-.73 3.75-.905 5.584-.523 1.801.375 3.088 1.195 3.86 2.459.777 1.272.992 2.743.643 4.414-.285 1.371-.827 2.47-1.626 3.298-.804.82-1.696 1.128-2.674.924-.627-.13-1.095-.381-1.407-.753-.317-.373-.422-.82-.313-1.342.048-.228.135-.486.263-.772.126-.28.22-.482.28-.606.265-.456.442-.895.53-1.32.088-.424.052-.772-.11-1.044-.168-.273-.448-.451-.839-.532-.751-.156-1.525.03-2.322.558-.793.536-1.504 1.338-2.135 2.405-.629 1.061-1.087 2.276-1.373 3.647-.791 3.799.465 6.042 3.768 6.73 1.345.28 2.887.131 4.628-.446s3.549-1.607 5.424-3.09c.488-.382.977-.522 1.466-.42.431.09.725.359.884.807.166.443.178 1.008.036 1.693-.258 1.24-.78 2.19-1.564 2.851-1.934 1.572-4.079 2.651-6.435 3.237-2.355.586-4.532.67-6.529.254zm33.849-2.862c.416.12.69.41.821.871.126.453.093 1.015-.1 1.688-.369 1.281-.96 2.19-1.773 2.726-1.607 1.099-3.669 1.948-6.187 2.549-2.516.594-5.01.535-7.483-.177-3.37-.97-5.723-2.639-7.06-5.008-1.339-2.362-1.551-5.133-.636-8.31.638-2.217 1.699-4.145 3.184-5.785 1.48-1.648 3.208-2.795 5.184-3.441 1.976-.645 4.008-.668 6.096-.066 1.864.537 3.198 1.517 4.002 2.942.809 1.433.94 3.097.395 4.993-.638 2.217-1.983 3.89-4.036 5.02-2.046 1.132-5.096 1.617-9.15 1.456.375 1.71 1.687 2.889 3.936 3.537 1.448.417 3.24.384 5.376-.097a16.966 16.966 0 0 0 5.928-2.592c.522-.342 1.023-.444 1.503-.306zm-10.129-10.47c-1.192-.343-2.392.057-3.603 1.201-1.218 1.148-2.109 2.699-2.671 4.652l-.027.096c2.019.095 3.705-.148 5.059-.729 1.347-.583 2.192-1.471 2.535-2.662.175-.609.15-1.147-.076-1.615-.234-.463-.64-.777-1.217-.943z" class="wordmark-text-0" data-fill-palette-color="primary"/></svg></g></svg></g></svg></g></svg></g><g transform="translate(105.776)"><svg width="183.969" height="183.969" viewBox="0 0 183.969 183.969"><g><svg xmlns="http://www.w3.org/2000/svg" xmlns:xlink="http://www.w3.org/1999/xlink" xml:space="preserve" width="183.969" height="183.969" class="icon-icon-0" data-fill-palette-color="accent" viewBox="0 0 48 48"><g fill="#fff" data-fill-palette-color="accent"><path d="m48 43.684-4.315-4.316v3.316H5.317V4.316h3.315L4.315 0 0 4.316h3.315v40.37h40.37V48zM24.566 1.469l-6.434 8.58H31z" data-fill-palette-color="accent"/><path d="m19.163 39.277-9.098-9.1-1.518 10.619zM40.588 40.795l-1.521-10.618-9.098 9.1zM24.566 35.854c6.586 0 11.943-5.357 11.943-11.942s-5.357-11.943-11.943-11.943-11.943 5.358-11.943 11.943 5.357 11.942 11.943 11.942zm-.495-11.273c-2.321-.909-3.755-1.955-3.755-3.937 0-1.89 1.343-3.321 3.438-3.664v-2.3h1.409v2.209c1.365.045 2.3.41 2.96.796l-.57 1.501a5.52 5.52 0 0 0-2.867-.773c-1.752 0-2.412 1.047-2.412 1.956 0 1.184.841 1.776 2.821 2.593 2.346.957 3.527 2.142 3.527 4.167 0 1.798-1.252 3.481-3.594 3.868v2.369h-1.436v-2.301c-1.319-.021-2.686-.433-3.482-1l.548-1.525a6.056 6.056 0 0 0 3.276.979c1.616 0 2.706-.934 2.706-2.23.001-1.25-.884-2.025-2.569-2.708z" data-fill-palette-color="accent"/></g></svg></g></svg></g></svg></g></svg></g></svg></g></svg>